<mxfile host="Electron" modified="2025-03-10T21:31:41.373Z" agent="Mozilla/5.0 (Windows NT 10.0; Win64; x64) AppleWebKit/537.36 (KHTML, like Gecko) draw.io/24.2.5 Chrome/120.0.6099.109 Electron/28.1.0 Safari/537.36" etag="cR-3FYUnDRCnoZMJNBnn" version="24.2.5" type="device">
  <diagram name="Page-1" id="ZDWTbA_Sev17Ivu9E_Sn">
    <mxGraphModel dx="1185" dy="683" grid="1" gridSize="10" guides="1" tooltips="1" connect="1" arrows="1" fold="1" page="1" pageScale="1" pageWidth="1600" pageHeight="900" math="0" shadow="0">
      <root>
        <mxCell id="0" />
        <mxCell id="1" parent="0" />
        <mxCell id="PxuOgjv0J5OH4InLxQA7-38" value="" style="rounded=1;whiteSpace=wrap;html=1;shadow=1;glass=0;shadowOpacity=50;shadowBlur=0;shadowOffsetX=1;shadowOffsetY=1;comic=0;strokeColor=default;align=center;verticalAlign=middle;fontFamily=Times New Roman;fontSize=12;fontColor=default;fillColor=default;" vertex="1" parent="1">
          <mxGeometry x="60" y="260" width="730" height="20" as="geometry" />
        </mxCell>
        <mxCell id="PxuOgjv0J5OH4InLxQA7-54" value="" style="rounded=1;whiteSpace=wrap;html=1;shadow=0;glass=0;shadowOpacity=100;shadowBlur=0;shadowOffsetX=1;shadowOffsetY=1;fillColor=#f5f5f5;fontColor=#333333;strokeColor=#666666;" vertex="1" parent="1">
          <mxGeometry x="330" y="260" width="40" height="20" as="geometry" />
        </mxCell>
        <mxCell id="PxuOgjv0J5OH4InLxQA7-37" value="" style="rounded=1;whiteSpace=wrap;html=1;shadow=1;glass=0;shadowOpacity=50;shadowBlur=0;shadowOffsetX=1;shadowOffsetY=1;comic=0;strokeColor=default;align=center;verticalAlign=middle;fontFamily=Times New Roman;fontSize=12;fontColor=default;fillColor=default;" vertex="1" parent="1">
          <mxGeometry x="60" y="235" width="720" height="20" as="geometry" />
        </mxCell>
        <mxCell id="PxuOgjv0J5OH4InLxQA7-50" value="" style="rounded=1;whiteSpace=wrap;html=1;shadow=1;glass=0;shadowOpacity=50;shadowBlur=0;shadowOffsetX=1;shadowOffsetY=1;comic=0;strokeColor=#666666;align=center;verticalAlign=middle;fontFamily=Times New Roman;fontSize=12;fontColor=#333333;fillColor=#f5f5f5;dashed=1;" vertex="1" parent="1">
          <mxGeometry x="120" y="300" width="630" height="60" as="geometry" />
        </mxCell>
        <mxCell id="PxuOgjv0J5OH4InLxQA7-53" value="" style="rounded=1;whiteSpace=wrap;html=1;shadow=0;glass=0;shadowOpacity=100;shadowBlur=0;shadowOffsetX=1;shadowOffsetY=1;fillColor=#f5f5f5;fontColor=#333333;strokeColor=#666666;" vertex="1" parent="1">
          <mxGeometry x="360" y="235" width="40" height="20" as="geometry" />
        </mxCell>
        <mxCell id="PxuOgjv0J5OH4InLxQA7-2" value="parameter generator" style="rounded=1;whiteSpace=wrap;html=1;shadow=1;glass=0;strokeColor=default;align=center;verticalAlign=middle;shadowOffsetX=1;shadowOffsetY=1;shadowBlur=0;shadowOpacity=50;fontFamily=Times New Roman;fontSize=12;fontColor=default;fillColor=default;" vertex="1" parent="1">
          <mxGeometry x="375" y="80" width="160" height="55" as="geometry" />
        </mxCell>
        <mxCell id="PxuOgjv0J5OH4InLxQA7-41" style="rounded=1;orthogonalLoop=1;jettySize=auto;html=1;exitX=0.75;exitY=1;exitDx=0;exitDy=0;entryX=0.5;entryY=0;entryDx=0;entryDy=0;edgeStyle=orthogonalEdgeStyle;jumpStyle=none;" edge="1" parent="1" source="PxuOgjv0J5OH4InLxQA7-1" target="PxuOgjv0J5OH4InLxQA7-5">
          <mxGeometry relative="1" as="geometry" />
        </mxCell>
        <mxCell id="PxuOgjv0J5OH4InLxQA7-1" value="track generators" style="rounded=1;whiteSpace=wrap;html=1;shadow=1;glass=0;shadowOpacity=50;shadowBlur=0;shadowOffsetX=1;shadowOffsetY=1;fontFamily=Times New Roman;fontSize=14;" vertex="1" parent="1">
          <mxGeometry x="370" y="70" width="160" height="60" as="geometry" />
        </mxCell>
        <mxCell id="PxuOgjv0J5OH4InLxQA7-3" value="" style="rounded=1;whiteSpace=wrap;html=1;shadow=1;glass=0;shadowOpacity=50;shadowBlur=0;shadowOffsetX=1;shadowOffsetY=1;comic=0;strokeColor=default;align=center;verticalAlign=middle;fontFamily=Times New Roman;fontSize=12;fontColor=default;fillColor=default;" vertex="1" parent="1">
          <mxGeometry x="60" y="210" width="710" height="20" as="geometry" />
        </mxCell>
        <mxCell id="PxuOgjv0J5OH4InLxQA7-46" style="edgeStyle=orthogonalEdgeStyle;rounded=1;orthogonalLoop=1;jettySize=auto;html=1;exitX=0.5;exitY=1;exitDx=0;exitDy=0;entryX=0.75;entryY=0;entryDx=0;entryDy=0;curved=0;" edge="1" parent="1" source="PxuOgjv0J5OH4InLxQA7-5" target="PxuOgjv0J5OH4InLxQA7-34">
          <mxGeometry relative="1" as="geometry">
            <Array as="points">
              <mxPoint x="550" y="350" />
              <mxPoint x="723" y="350" />
            </Array>
          </mxGeometry>
        </mxCell>
        <mxCell id="PxuOgjv0J5OH4InLxQA7-48" style="edgeStyle=orthogonalEdgeStyle;rounded=1;orthogonalLoop=1;jettySize=auto;html=1;exitX=0.5;exitY=1;exitDx=0;exitDy=0;entryX=0.75;entryY=0;entryDx=0;entryDy=0;curved=0;" edge="1" parent="1" source="PxuOgjv0J5OH4InLxQA7-5" target="PxuOgjv0J5OH4InLxQA7-32">
          <mxGeometry relative="1" as="geometry">
            <Array as="points">
              <mxPoint x="550" y="350" />
              <mxPoint x="333" y="350" />
            </Array>
          </mxGeometry>
        </mxCell>
        <mxCell id="PxuOgjv0J5OH4InLxQA7-5" value="" style="rounded=1;whiteSpace=wrap;html=1;shadow=0;glass=0;shadowOpacity=100;shadowBlur=0;shadowOffsetX=1;shadowOffsetY=1;fillColor=#f5f5f5;fontColor=#333333;strokeColor=#666666;" vertex="1" parent="1">
          <mxGeometry x="530" y="210" width="40" height="20" as="geometry" />
        </mxCell>
        <mxCell id="PxuOgjv0J5OH4InLxQA7-8" value="" style="rounded=1;whiteSpace=wrap;html=1;shadow=0;glass=0;shadowOpacity=100;shadowBlur=0;shadowOffsetX=1;shadowOffsetY=1;" vertex="1" parent="1">
          <mxGeometry x="490" y="210" width="40" height="20" as="geometry" />
        </mxCell>
        <mxCell id="PxuOgjv0J5OH4InLxQA7-9" value="" style="rounded=1;whiteSpace=wrap;html=1;shadow=0;glass=0;shadowOpacity=100;shadowBlur=0;shadowOffsetX=1;shadowOffsetY=1;" vertex="1" parent="1">
          <mxGeometry x="450" y="210" width="40" height="20" as="geometry" />
        </mxCell>
        <mxCell id="PxuOgjv0J5OH4InLxQA7-10" value="" style="rounded=1;whiteSpace=wrap;html=1;shadow=0;glass=0;shadowOpacity=100;shadowBlur=0;shadowOffsetX=1;shadowOffsetY=1;" vertex="1" parent="1">
          <mxGeometry x="410" y="210" width="40" height="20" as="geometry" />
        </mxCell>
        <mxCell id="PxuOgjv0J5OH4InLxQA7-11" value="" style="rounded=1;whiteSpace=wrap;html=1;shadow=0;glass=0;shadowOpacity=100;shadowBlur=0;shadowOffsetX=1;shadowOffsetY=1;" vertex="1" parent="1">
          <mxGeometry x="370" y="210" width="40" height="20" as="geometry" />
        </mxCell>
        <mxCell id="PxuOgjv0J5OH4InLxQA7-12" value="" style="rounded=1;whiteSpace=wrap;html=1;shadow=0;glass=0;shadowOpacity=100;shadowBlur=0;shadowOffsetX=1;shadowOffsetY=1;" vertex="1" parent="1">
          <mxGeometry x="330" y="210" width="40" height="20" as="geometry" />
        </mxCell>
        <mxCell id="PxuOgjv0J5OH4InLxQA7-13" value="" style="rounded=1;whiteSpace=wrap;html=1;shadow=0;glass=0;shadowOpacity=100;shadowBlur=0;shadowOffsetX=1;shadowOffsetY=1;" vertex="1" parent="1">
          <mxGeometry x="290" y="210" width="40" height="20" as="geometry" />
        </mxCell>
        <mxCell id="PxuOgjv0J5OH4InLxQA7-14" value="" style="rounded=1;whiteSpace=wrap;html=1;shadow=0;glass=0;shadowOpacity=100;shadowBlur=0;shadowOffsetX=1;shadowOffsetY=1;" vertex="1" parent="1">
          <mxGeometry x="250" y="210" width="40" height="20" as="geometry" />
        </mxCell>
        <mxCell id="PxuOgjv0J5OH4InLxQA7-15" value="" style="rounded=1;whiteSpace=wrap;html=1;shadow=0;glass=0;shadowOpacity=100;shadowBlur=0;shadowOffsetX=1;shadowOffsetY=1;" vertex="1" parent="1">
          <mxGeometry x="210" y="210" width="40" height="20" as="geometry" />
        </mxCell>
        <mxCell id="PxuOgjv0J5OH4InLxQA7-22" value="" style="endArrow=classic;html=1;rounded=0;" edge="1" parent="1">
          <mxGeometry width="50" height="50" relative="1" as="geometry">
            <mxPoint x="150" y="190" as="sourcePoint" />
            <mxPoint x="80" y="190" as="targetPoint" />
          </mxGeometry>
        </mxCell>
        <mxCell id="PxuOgjv0J5OH4InLxQA7-24" value="history" style="text;html=1;align=center;verticalAlign=middle;resizable=0;points=[];autosize=1;strokeColor=none;fillColor=none;fontFamily=Times New Roman;fontSize=13;" vertex="1" parent="1">
          <mxGeometry x="150" y="175" width="60" height="30" as="geometry" />
        </mxCell>
        <mxCell id="PxuOgjv0J5OH4InLxQA7-25" value="" style="rounded=0;whiteSpace=wrap;html=1;strokeColor=none;" vertex="1" parent="1">
          <mxGeometry x="50" y="190" width="20" height="160" as="geometry" />
        </mxCell>
        <mxCell id="PxuOgjv0J5OH4InLxQA7-27" value="" style="endArrow=none;dashed=1;html=1;rounded=0;strokeWidth=2;exitX=0.992;exitY=0.706;exitDx=0;exitDy=0;exitPerimeter=0;dashPattern=1 1;" edge="1" parent="1">
          <mxGeometry width="50" height="50" relative="1" as="geometry">
            <mxPoint x="69.51999999999998" y="302.96000000000004" as="sourcePoint" />
            <mxPoint x="70" y="180" as="targetPoint" />
          </mxGeometry>
        </mxCell>
        <mxCell id="PxuOgjv0J5OH4InLxQA7-30" value="t = now" style="text;html=1;align=center;verticalAlign=middle;resizable=0;points=[];autosize=1;strokeColor=none;fillColor=none;fontFamily=Times New Roman;fontSize=13;" vertex="1" parent="1">
          <mxGeometry x="430" y="174" width="60" height="30" as="geometry" />
        </mxCell>
        <mxCell id="PxuOgjv0J5OH4InLxQA7-58" style="edgeStyle=orthogonalEdgeStyle;rounded=1;orthogonalLoop=1;jettySize=auto;html=1;exitX=0.25;exitY=0;exitDx=0;exitDy=0;entryX=0.5;entryY=1;entryDx=0;entryDy=0;curved=0;" edge="1" parent="1" source="PxuOgjv0J5OH4InLxQA7-31" target="PxuOgjv0J5OH4InLxQA7-54">
          <mxGeometry relative="1" as="geometry">
            <Array as="points">
              <mxPoint x="148" y="330" />
              <mxPoint x="350" y="330" />
            </Array>
          </mxGeometry>
        </mxCell>
        <mxCell id="PxuOgjv0J5OH4InLxQA7-31" value="sensor" style="rounded=1;whiteSpace=wrap;html=1;shadow=1;glass=0;shadowOpacity=50;shadowBlur=0;shadowOffsetX=1;shadowOffsetY=1;fontFamily=Times New Roman;strokeColor=default;align=center;verticalAlign=middle;fontSize=14;fontColor=default;fillColor=default;" vertex="1" parent="1">
          <mxGeometry x="120" y="380" width="110" height="60" as="geometry" />
        </mxCell>
        <mxCell id="PxuOgjv0J5OH4InLxQA7-59" style="edgeStyle=orthogonalEdgeStyle;rounded=1;orthogonalLoop=1;jettySize=auto;html=1;exitX=0.25;exitY=0;exitDx=0;exitDy=0;entryX=0.5;entryY=1;entryDx=0;entryDy=0;curved=0;" edge="1" parent="1" source="PxuOgjv0J5OH4InLxQA7-32" target="PxuOgjv0J5OH4InLxQA7-53">
          <mxGeometry relative="1" as="geometry">
            <Array as="points">
              <mxPoint x="278" y="340" />
              <mxPoint x="380" y="340" />
            </Array>
          </mxGeometry>
        </mxCell>
        <mxCell id="PxuOgjv0J5OH4InLxQA7-32" value="consumer&lt;div style=&quot;font-size: 14px;&quot;&gt;+ sensor&lt;/div&gt;" style="rounded=1;whiteSpace=wrap;html=1;shadow=1;glass=0;shadowOpacity=50;shadowBlur=0;shadowOffsetX=1;shadowOffsetY=1;fontFamily=Times New Roman;strokeColor=default;align=center;verticalAlign=middle;fontSize=14;fontColor=default;fillColor=default;" vertex="1" parent="1">
          <mxGeometry x="250" y="380" width="110" height="60" as="geometry" />
        </mxCell>
        <mxCell id="PxuOgjv0J5OH4InLxQA7-33" value="consumer" style="rounded=1;whiteSpace=wrap;html=1;shadow=1;glass=0;shadowOpacity=50;shadowBlur=0;shadowOffsetX=1;shadowOffsetY=1;fontFamily=Times New Roman;strokeColor=default;align=center;verticalAlign=middle;fontSize=14;fontColor=default;fillColor=default;" vertex="1" parent="1">
          <mxGeometry x="380" y="380" width="110" height="60" as="geometry" />
        </mxCell>
        <mxCell id="PxuOgjv0J5OH4InLxQA7-34" value="consumer" style="rounded=1;whiteSpace=wrap;html=1;shadow=1;glass=0;shadowOpacity=50;shadowBlur=0;shadowOffsetX=1;shadowOffsetY=1;fontFamily=Times New Roman;strokeColor=default;align=center;verticalAlign=middle;fontSize=14;fontColor=default;fillColor=default;" vertex="1" parent="1">
          <mxGeometry x="640" y="380" width="110" height="60" as="geometry" />
        </mxCell>
        <mxCell id="PxuOgjv0J5OH4InLxQA7-36" value="..." style="rounded=1;whiteSpace=wrap;html=1;shadow=1;glass=0;shadowOpacity=50;shadowBlur=0;shadowOffsetX=1;shadowOffsetY=1;fontFamily=Times New Roman;strokeColor=default;align=center;verticalAlign=middle;fontSize=14;fontColor=default;fillColor=default;" vertex="1" parent="1">
          <mxGeometry x="510" y="380" width="110" height="60" as="geometry" />
        </mxCell>
        <mxCell id="PxuOgjv0J5OH4InLxQA7-39" value="n tracks" style="text;html=1;align=left;verticalAlign=middle;resizable=0;points=[];autosize=1;strokeColor=none;fillColor=none;fontFamily=Times New Roman;fontSize=13;" vertex="1" parent="1">
          <mxGeometry x="830" y="204" width="60" height="30" as="geometry" />
        </mxCell>
        <mxCell id="PxuOgjv0J5OH4InLxQA7-40" value="" style="curved=1;endArrow=classic;html=1;rounded=0;exitX=0.014;exitY=0.554;exitDx=0;exitDy=0;exitPerimeter=0;" edge="1" parent="1" source="PxuOgjv0J5OH4InLxQA7-39">
          <mxGeometry width="50" height="50" relative="1" as="geometry">
            <mxPoint x="640" y="260" as="sourcePoint" />
            <mxPoint x="790" y="240" as="targetPoint" />
            <Array as="points">
              <mxPoint x="790" y="210" />
              <mxPoint x="820" y="240" />
            </Array>
          </mxGeometry>
        </mxCell>
        <mxCell id="PxuOgjv0J5OH4InLxQA7-44" value="scheduling a future parameter" style="text;html=1;align=center;verticalAlign=middle;resizable=0;points=[];autosize=1;strokeColor=none;fillColor=none;fontFamily=Times New Roman;fontSize=13;" vertex="1" parent="1">
          <mxGeometry x="546" y="166" width="180" height="30" as="geometry" />
        </mxCell>
        <mxCell id="PxuOgjv0J5OH4InLxQA7-51" value="network" style="text;html=1;align=left;verticalAlign=middle;resizable=0;points=[];autosize=1;strokeColor=none;fillColor=none;fontFamily=Times New Roman;fontSize=13;" vertex="1" parent="1">
          <mxGeometry x="800" y="290" width="70" height="30" as="geometry" />
        </mxCell>
        <mxCell id="PxuOgjv0J5OH4InLxQA7-52" value="" style="curved=1;endArrow=classic;html=1;rounded=0;exitX=0.001;exitY=0.508;exitDx=0;exitDy=0;exitPerimeter=0;" edge="1" parent="1" source="PxuOgjv0J5OH4InLxQA7-51">
          <mxGeometry width="50" height="50" relative="1" as="geometry">
            <mxPoint x="860" y="338" as="sourcePoint" />
            <mxPoint x="760" y="340" as="targetPoint" />
            <Array as="points">
              <mxPoint x="770" y="310" />
              <mxPoint x="800" y="340" />
            </Array>
          </mxGeometry>
        </mxCell>
        <mxCell id="PxuOgjv0J5OH4InLxQA7-60" value="" style="edgeStyle=orthogonalEdgeStyle;rounded=1;orthogonalLoop=1;jettySize=auto;html=1;curved=0;entryX=0.25;entryY=1;entryDx=0;entryDy=0;startArrow=baseDash;startFill=0;" edge="1" parent="1" source="PxuOgjv0J5OH4InLxQA7-53" target="PxuOgjv0J5OH4InLxQA7-1">
          <mxGeometry relative="1" as="geometry">
            <mxPoint x="420" y="150" as="targetPoint" />
            <Array as="points">
              <mxPoint x="380" y="180" />
              <mxPoint x="410" y="180" />
            </Array>
          </mxGeometry>
        </mxCell>
        <mxCell id="PxuOgjv0J5OH4InLxQA7-61" value="reading histories" style="text;html=1;align=center;verticalAlign=middle;resizable=0;points=[];autosize=1;strokeColor=none;fillColor=none;fontFamily=Times New Roman;fontSize=13;" vertex="1" parent="1">
          <mxGeometry x="296" y="147" width="110" height="30" as="geometry" />
        </mxCell>
        <mxCell id="PxuOgjv0J5OH4InLxQA7-63" value="" style="endArrow=none;dashed=1;html=1;rounded=0;" edge="1" parent="1">
          <mxGeometry width="50" height="50" relative="1" as="geometry">
            <mxPoint x="460" y="270" as="sourcePoint" />
            <mxPoint x="460" y="200" as="targetPoint" />
          </mxGeometry>
        </mxCell>
        <mxCell id="PxuOgjv0J5OH4InLxQA7-47" style="edgeStyle=orthogonalEdgeStyle;rounded=1;orthogonalLoop=1;jettySize=auto;html=1;exitX=0.5;exitY=1;exitDx=0;exitDy=0;curved=0;entryX=0.75;entryY=0;entryDx=0;entryDy=0;startArrow=baseDash;startFill=0;" edge="1" parent="1" source="PxuOgjv0J5OH4InLxQA7-5" target="PxuOgjv0J5OH4InLxQA7-33">
          <mxGeometry relative="1" as="geometry">
            <Array as="points">
              <mxPoint x="550" y="350" />
              <mxPoint x="463" y="350" />
            </Array>
          </mxGeometry>
        </mxCell>
        <mxCell id="PxuOgjv0J5OH4InLxQA7-67" value="" style="rounded=1;whiteSpace=wrap;html=1;shadow=0;glass=0;shadowOpacity=100;shadowBlur=0;shadowOffsetX=1;shadowOffsetY=1;" vertex="1" parent="1">
          <mxGeometry x="320" y="235" width="40" height="20" as="geometry" />
        </mxCell>
        <mxCell id="PxuOgjv0J5OH4InLxQA7-68" value="" style="rounded=1;whiteSpace=wrap;html=1;shadow=0;glass=0;shadowOpacity=100;shadowBlur=0;shadowOffsetX=1;shadowOffsetY=1;" vertex="1" parent="1">
          <mxGeometry x="280" y="235" width="40" height="20" as="geometry" />
        </mxCell>
        <mxCell id="PxuOgjv0J5OH4InLxQA7-69" value="" style="rounded=1;whiteSpace=wrap;html=1;shadow=0;glass=0;shadowOpacity=100;shadowBlur=0;shadowOffsetX=1;shadowOffsetY=1;" vertex="1" parent="1">
          <mxGeometry x="240" y="235" width="40" height="20" as="geometry" />
        </mxCell>
        <mxCell id="PxuOgjv0J5OH4InLxQA7-70" value="" style="rounded=1;whiteSpace=wrap;html=1;shadow=0;glass=0;shadowOpacity=100;shadowBlur=0;shadowOffsetX=1;shadowOffsetY=1;" vertex="1" parent="1">
          <mxGeometry x="200" y="235" width="40" height="20" as="geometry" />
        </mxCell>
        <mxCell id="PxuOgjv0J5OH4InLxQA7-71" value="" style="rounded=1;whiteSpace=wrap;html=1;shadow=0;glass=0;shadowOpacity=100;shadowBlur=0;shadowOffsetX=1;shadowOffsetY=1;" vertex="1" parent="1">
          <mxGeometry x="160" y="235" width="40" height="20" as="geometry" />
        </mxCell>
        <mxCell id="PxuOgjv0J5OH4InLxQA7-73" value="" style="rounded=1;whiteSpace=wrap;html=1;shadow=0;glass=0;shadowOpacity=100;shadowBlur=0;shadowOffsetX=1;shadowOffsetY=1;" vertex="1" parent="1">
          <mxGeometry x="310" y="260" width="20" height="20" as="geometry" />
        </mxCell>
        <mxCell id="PxuOgjv0J5OH4InLxQA7-74" value="" style="rounded=1;whiteSpace=wrap;html=1;shadow=0;glass=0;shadowOpacity=100;shadowBlur=0;shadowOffsetX=1;shadowOffsetY=1;" vertex="1" parent="1">
          <mxGeometry x="290" y="260" width="20" height="20" as="geometry" />
        </mxCell>
        <mxCell id="PxuOgjv0J5OH4InLxQA7-75" value="" style="rounded=1;whiteSpace=wrap;html=1;shadow=0;glass=0;shadowOpacity=100;shadowBlur=0;shadowOffsetX=1;shadowOffsetY=1;" vertex="1" parent="1">
          <mxGeometry x="250" y="260" width="40" height="20" as="geometry" />
        </mxCell>
        <mxCell id="PxuOgjv0J5OH4InLxQA7-76" value="" style="rounded=1;whiteSpace=wrap;html=1;shadow=0;glass=0;shadowOpacity=100;shadowBlur=0;shadowOffsetX=1;shadowOffsetY=1;" vertex="1" parent="1">
          <mxGeometry x="220" y="260" width="30" height="20" as="geometry" />
        </mxCell>
        <mxCell id="PxuOgjv0J5OH4InLxQA7-77" value="" style="rounded=1;whiteSpace=wrap;html=1;shadow=0;glass=0;shadowOpacity=100;shadowBlur=0;shadowOffsetX=1;shadowOffsetY=1;" vertex="1" parent="1">
          <mxGeometry x="180" y="260" width="40" height="20" as="geometry" />
        </mxCell>
        <mxCell id="PxuOgjv0J5OH4InLxQA7-64" style="edgeStyle=orthogonalEdgeStyle;rounded=1;orthogonalLoop=1;jettySize=auto;html=1;exitX=0.5;exitY=0;exitDx=0;exitDy=0;entryX=0.25;entryY=1;entryDx=0;entryDy=0;curved=0;startArrow=baseDash;startFill=0;" edge="1" parent="1" source="PxuOgjv0J5OH4InLxQA7-54" target="PxuOgjv0J5OH4InLxQA7-1">
          <mxGeometry relative="1" as="geometry">
            <Array as="points">
              <mxPoint x="350" y="180" />
              <mxPoint x="410" y="180" />
            </Array>
          </mxGeometry>
        </mxCell>
      </root>
    </mxGraphModel>
  </diagram>
</mxfile>
